Coordinates
version=1
nRows=14
nColumns=24
inDegrees=yes

Units are S.I. units (second, meters, Newtons, ...)
Angles are in degrees.

endheader
time	pelvis_tilt	pelvis_list	pelvis_rotation	pelvis_tx	pelvis_ty	pelvis_tz	hip_flexion_r	hip_adduction_r	hip_rotation_r	knee_angle_r	ankle_angle_r	subtalar_angle_r	mtp_angle_r	hip_flexion_l	hip_adduction_l	hip_rotation_l	knee_angle_l	ankle_angle_l	subtalar_angle_l	mtp_angle_l	lumbar_extension	lumbar_bending	lumbar_rotation
      4.01500000	    -18.27962377	     -3.01377120	     -2.45525639	     -1.35829724	     -0.00437036	     -0.24204609	      8.69011349	      9.70927093	      9.33780499	     -6.13285149	      3.02775371	     -3.42159584	      3.31686337	     45.24406110	      0.18353049	      4.02646636	    -51.18081808	     16.23455069	      8.48053608	    -65.60181631	     12.96749047	      2.26516827	      5.49474831
      4.02000000	    -18.29914349	     -2.86970065	     -2.70210645	     -1.35169533	     -0.00458941	     -0.24176312	      8.05286232	      9.55263403	      9.38709668	     -5.80673504	      3.00554345	     -3.15493051	      3.43868151	     45.53591767	      0.17192842	      3.95281842	    -49.53823842	     16.42213194	      8.59595498	    -65.67488322	     12.90791620	      2.21563564	      5.72614087
      4.02500000	    -18.29928025	     -2.72448307	     -2.94275300	     -1.34510587	     -0.00485782	     -0.24148481	      7.42085214	      9.39246120	      9.40937037	     -5.52361036	      3.00348624	     -2.87144172	      3.61058665	     45.76051414	      0.16886581	      3.92478530	    -47.80673069	     16.51935129	      8.65951512	    -65.74087820	     12.82346987	      2.15698799	      5.97541277
      4.03000000	    -18.31471046	     -2.57687557	     -3.16681268	     -1.33851100	     -0.00521263	     -0.24126139	      6.82857125	      9.22272791	      9.42047234	     -5.28081525	      3.01532515	     -2.57835075	      3.80633159	     45.96319267	      0.16933808	      3.89931867	    -45.99574794	     16.51188983	      8.70110644	    -65.78690516	     12.75386588	      2.10481380	      6.19404956
      4.03500000	    -18.37527089	     -2.42659238	     -3.37551318	     -1.33193113	     -0.00571267	     -0.24097400	      6.32443775	      9.06484822	      9.41963394	     -5.11304516	      3.06863700	     -2.35434232	      3.96300547	     46.17215310	      0.17088947	      3.93607930	    -44.10783379	     16.43776493	      8.78037762	    -65.80831867	     12.73402679	      2.02925148	      6.37624466
      4.04000000	    -18.28472821	     -2.27177127	     -3.60652381	     -1.32532418	     -0.00607317	     -0.24076404	      5.66886697	      8.87730473	      9.32901309	     -4.95318835	      3.12834332	     -1.92422106	      4.36006548	     46.16274648	      0.16171428	      3.92799446	    -42.13527271	     16.26344216	      8.76731398	    -65.79073845	     12.54749711	      1.96585126	      6.62630089
      4.04500000	    -18.40053356	     -2.11754460	     -3.79272650	     -1.31871355	     -0.00677223	     -0.24053128	      5.26517768	      8.71306803	      9.34653960	     -4.86109292	      3.19849892	     -1.73990758	      4.53102208	     46.35669284	      0.15819908	      3.96700721	    -40.11632522	     15.99361904	      8.81263399	    -65.80117140	     12.59594407	      1.89314988	      6.74781335
      4.05000000	    -18.42571295	     -1.93320584	     -4.02313631	     -1.31208703	     -0.00739428	     -0.24024754	      4.78976932	      8.51489454	      9.34500789	     -4.81234890	      3.30909365	     -1.46335862	      4.76519063	     46.38673315	      0.14371072	      3.98341641	    -38.00913979	     15.67139523	      8.83096600	    -65.79031409	     12.54385408	      1.78934734	      6.94466130
      4.05500000	    -18.44178562	     -1.76764805	     -4.22315297	     -1.30543813	     -0.00808247	     -0.24003890	      4.32561341	      8.32954820	      9.30611070	     -4.80483942	      3.41964369	     -1.18029441	      5.02555221	     46.37500118	      0.12251572	      4.01824657	    -35.86179865	     15.33813096	      8.90799053	    -65.75793492	     12.48226630	      1.70806001	      7.11427900
      4.06000000	    -18.46632828	     -1.60153926	     -4.42456685	     -1.29877991	     -0.00883868	     -0.23980777	      3.89483953	      8.14846532	      9.25833449	     -4.84113079	      3.53719161	     -0.91173219	      5.30639917	     46.33580815	      0.08657707	      4.06252786	    -33.67428886	     14.99791389	      9.02691239	    -65.70879255	     12.43210987	      1.62187047	      7.27463069
      4.06500000	    -18.49137986	     -1.42744340	     -4.63090757	     -1.29211097	     -0.00964522	     -0.23955518	      3.48957752	      7.96255357	      9.20850593	     -4.92189287	      3.66706337	     -0.65766314	      5.61821622	     46.26137731	      0.04000213	      4.10284754	    -31.45199397	     14.66366484	      9.19120525	    -65.64030506	     12.38342059	      1.52359128	      7.43336553
      4.07000000	    -18.40195295	     -1.27432967	     -4.74990370	     -1.28542239	     -0.01040546	     -0.23944121	      2.98655742	      7.77470356	      8.89133946	     -5.02078346	      3.75627009	     -0.27475357	      6.57066374	     46.03738846	      0.03481834	      4.20364034	    -29.20474115	     14.32870772	      9.46792418	    -65.21508970	     12.20265488	      1.42175416	      7.49633843
      4.07500000	    -18.58435998	     -1.12755704	     -4.99682610	     -1.27878396	     -0.01150549	     -0.23913252	      2.80098145	      7.64450709	      9.02453683	     -5.20425816	      3.83951824	     -0.23995740	      6.75505057	     46.10423232	     -0.09504734	      4.23369826	    -27.00412631	     14.06558791	      9.73410579	    -65.18803518	     12.32317428	      1.37184890	      7.68388248
      4.08000000	    -18.67390888	     -0.97097536	     -5.20985079	     -1.27210682	     -0.01255189	     -0.23885181	      2.53084665	      7.49138528	      9.08564408	     -5.41723993	      3.95957510	     -0.14263300	      6.98897196	     46.04900015	     -0.20455786	      4.22473348	    -24.80212384	     13.85218166	     10.09693544	    -65.15038525	     12.34416786	      1.29703229	      7.83713536
